<svg xmlns="http://www.w3.org/2000/svg" width="57" height="62" viewBox="0 0 57 62"><defs><style>.a{fill:#00a1e4;}</style></defs><path class="a" d="M72.8,51.472a1.806,1.806,0,0,0-1.281-.534H64.218c1.161-3.206,1-5.423,1-8.736h9.927a1.822,1.822,0,0,0,0-3.643H65.219V29.824h6.3A1.806,1.806,0,0,0,72.8,29.29l3.684-3.7a1.829,1.829,0,0,0,0-2.576,1.8,1.8,0,0,0-2.562,0l-3.153,3.17H64.692a6.76,6.76,0,0,0-5.133-4.058V18.164a12.988,12.988,0,0,0-2.7-7.994l6.463-7.12A1.829,1.829,0,0,0,63.208.477a1.8,1.8,0,0,0-2.559.117L54.221,7.675a10.62,10.62,0,0,0-12.139,0L35.655.594A1.8,1.8,0,0,0,33.1.476a1.829,1.829,0,0,0-.117,2.574l6.463,7.12a12.988,12.988,0,0,0-2.7,7.994v4.122a6.775,6.775,0,0,0-4.394,3.895H26.264l-3.153-3.17a1.8,1.8,0,0,0-2.562,0,1.829,1.829,0,0,0,0,2.576l3.684,3.7a1.806,1.806,0,0,0,1.281.534h6.309v8.736H21.891a1.822,1.822,0,0,0,0,3.643h9.932V45.21a16.8,16.8,0,0,0,1,5.728h-7.31a1.806,1.806,0,0,0-1.281.534l-3.684,3.7a1.829,1.829,0,0,0,0,2.576,1.8,1.8,0,0,0,2.562,0l3.153-3.17h8.407a16.636,16.636,0,0,0,27.7,0h8.4l3.153,3.17a1.8,1.8,0,0,0,2.562,0,1.829,1.829,0,0,0,0-2.576ZM55.936,18.164v3.871H40.367V18.164c0-4.825,3.492-8.75,7.785-8.75S55.936,13.339,55.936,18.164ZM35.445,45.21V28.8a3.122,3.122,0,0,1,3.11-3.127h8.031V58.214A13.145,13.145,0,0,1,35.445,45.21ZM50.209,58.248V25.678h8.277A3.123,3.123,0,0,1,61.6,28.8V45.21A13.143,13.143,0,0,1,50.209,58.248Z" transform="translate(-20.019 0)"/></svg>