<svg xmlns="http://www.w3.org/2000/svg" width="62" height="62" viewBox="0 0 62 62"><defs><style>.a{fill:#f0bc5e;}.b{fill:#00a1e4;}</style></defs><g transform="translate(-1 -1)"><path class="a" d="M2,8H34V50H2Z"/><path class="b" d="M54.739,11.1l-.325-2.275a4.459,4.459,0,0,0-8.828,0L45.261,11.1A2.994,2.994,0,0,0,46,17h.219l.326,1.3a3.561,3.561,0,0,0,6.91,0l.326-1.3H54a2.994,2.994,0,0,0,.739-5.9ZM50,7a2.473,2.473,0,0,1,2.435,2.111L52.7,11H47.3l.27-1.889A2.473,2.473,0,0,1,50,7Zm1.515,10.817a1.562,1.562,0,0,1-3.03,0l-.2-.817h3.438ZM54,15H46a1,1,0,0,1,0-2h8a1,1,0,0,1,0,2Z"/><path class="b" d="M60,1H40a3,3,0,0,0-3,3V22a3,3,0,0,0,3,3h3v1.586a2.414,2.414,0,0,0,4.121,1.707L50.414,25H60a3,3,0,0,0,3-3V4A3,3,0,0,0,60,1Zm1,21a1,1,0,0,1-1,1H49.586l-3.879,3.879A.43.43,0,0,1,45,26.586V23H40a1,1,0,0,1-1-1V4a1,1,0,0,1,1-1H60a1,1,0,0,1,1,1Z"/><path class="b" d="M30,1H6A5.006,5.006,0,0,0,1,6V58a5.006,5.006,0,0,0,5,5H30a5.006,5.006,0,0,0,5-5V6A5.006,5.006,0,0,0,30,1ZM6,3H30a3,3,0,0,1,3,3V7H3V6A3,3,0,0,1,6,3ZM33,9V49H3V9ZM30,61H6a3,3,0,0,1-3-3V51H33v7A3,3,0,0,1,30,61Z"/><path class="b" d="M21,53H15a2,2,0,0,0-2,2v2a2,2,0,0,0,2,2h6a2,2,0,0,0,2-2V55A2,2,0,0,0,21,53Zm-6,4V55h6v2Z"/><path class="b" d="M29,53H27a2,2,0,0,0-2,2v2a2,2,0,0,0,2,2h2a2,2,0,0,0,2-2V55A2,2,0,0,0,29,53Zm-2,4V55h2v2Z"/><path class="b" d="M9,53H7a2,2,0,0,0-2,2v2a2,2,0,0,0,2,2H9a2,2,0,0,0,2-2V55A2,2,0,0,0,9,53ZM7,57V55H9v2Z"/><path class="b" d="M25,22a3.992,3.992,0,0,0,3.7-2.526,13.693,13.693,0,0,0,1.884.471l.249.042.329-1.973-.249-.042a11.611,11.611,0,0,1-8.059-5.487l-1.715,1.029a13.626,13.626,0,0,0,1.125,1.576A3.993,3.993,0,0,0,25,22Zm1.853-3.267a1.994,1.994,0,1,1-3.213-2.187,13.558,13.558,0,0,0,3.213,2.187Z"/><path class="b" d="M5.165,19.986l.249-.042A13.55,13.55,0,0,0,7.3,19.473a3.991,3.991,0,1,0,6.435-4.383,13.748,13.748,0,0,0,1.125-1.576l-1.715-1.029a11.611,11.611,0,0,1-8.059,5.487l-.249.042Zm7.2-3.44a1.993,1.993,0,1,1-3.213,2.187,13.558,13.558,0,0,0,3.213-2.187Z"/><path class="b" d="M39,33h2v2H39Z"/><path class="b" d="M43,33h2v2H43Z"/><path class="b" d="M47,33h2v2H47Z"/><path class="b" d="M11.759,40.325c-.44.48-.637.675-1.094.675s-.654-.195-1.1-.675A3.273,3.273,0,0,0,7,39v2c.458,0,.655.195,1.1.676A3.275,3.275,0,0,0,10.665,43a3.269,3.269,0,0,0,2.569-1.325c.44-.48.637-.675,1.1-.675s.654.195,1.1.675a3.155,3.155,0,0,0,5.139,0C21,41.195,21.2,41,21.658,41s.657.195,1.1.676a3.16,3.16,0,0,0,5.144,0c.442-.481.639-.676,1.1-.676V39a3.275,3.275,0,0,0-2.572,1.324c-.442.481-.639.676-1.1.676s-.658-.195-1.1-.676a3.158,3.158,0,0,0-5.142,0c-.441.481-.637.676-1.095.676s-.654-.195-1.095-.675a3.154,3.154,0,0,0-5.139,0Z"/><path class="b" d="M15,31c0-2.347-2.956-5.37-3.293-5.707L11,24.586l-.707.707C9.956,25.63,7,28.653,7,31a4,4,0,0,0,8,0ZM9,31c0-.874,1.017-2.381,2-3.525.983,1.144,2,2.652,2,3.525a2,2,0,0,1-4,0Z"/></g></svg>