<svg xmlns="http://www.w3.org/2000/svg" width="63.945" height="61.996" viewBox="0 0 63.945 61.996"><defs><style>.a{fill:#4171bb;}</style></defs><g transform="translate(-0.054 0)"><path class="a" d="M54.207,121.661a1.045,1.045,0,0,0,1.156-.65,22.306,22.306,0,0,1,4.121-8,.938.938,0,0,0-1.461-1.175,24.174,24.174,0,0,0-4.465,8.669.916.916,0,0,0,.649,1.156Zm0,0" transform="translate(-46.832 -97.58)"/><path class="a" d="M151.715,66.717a.937.937,0,0,0,.938-.937,24.366,24.366,0,0,0-40.214-18.507.937.937,0,1,0,1.22,1.423A22.491,22.491,0,0,1,150.778,65.78a.938.938,0,0,0,.938.937Zm0,0" transform="translate(-98.098 -36.237)"/><path class="a" d="M89.67,99.536h.077a.938.938,0,0,0,.858-1.01,27.382,27.382,0,0,0-3.264-10.993,17.645,17.645,0,0,0-6.528-6.687,18.591,18.591,0,0,0-9.453-2.571A19.545,19.545,0,0,0,52.555,92.491q-.123.449-.29,1.248a1.923,1.923,0,0,1-1.638,1.521c-.785.1-1.685.169-2.675.209a.938.938,0,0,0,.075,1.874c1.042-.042,2-.117,2.834-.222a3.8,3.8,0,0,0,3.239-3c.1-.494.191-.875.261-1.13a17.665,17.665,0,0,1,17-12.845,16.714,16.714,0,0,1,8.5,2.311A15.769,15.769,0,0,1,85.7,88.428a25.505,25.505,0,0,1,3.04,10.246.938.938,0,0,0,.934.862Zm0,0" transform="translate(-41.171 -68.513)"/><path class="a" d="M319.385,163.421h.027a.937.937,0,0,0,.937-.911,14.748,14.748,0,0,0-.076-2.186,14.959,14.959,0,0,0-4.318-10.245.938.938,0,0,0-1.336,1.315,13.09,13.09,0,0,1,3.781,9.013.9.9,0,0,0,.008.108,12.682,12.682,0,0,1,.067,1.942.937.937,0,0,0,.911.963Zm0,0" transform="translate(-275.056 -131.117)"/><path class="a" d="M47.984,134.928h.128a26.426,26.426,0,0,0,7.106-1.083,4.447,4.447,0,0,0,3.014-3.916c.026-.353.069-.7.127-1.042a13.152,13.152,0,0,1,19.052-9.417.938.938,0,0,0,.871-1.661,15.037,15.037,0,0,0-21.77,10.759c-.068.4-.119.808-.149,1.22a2.576,2.576,0,0,1-1.735,2.277,24.242,24.242,0,0,1-6.588.989h-.128a.938.938,0,0,0,.036,1.875h.037Zm0,0" transform="translate(-41.134 -101.619)"/><path class="a" d="M235.257,413.9a24.564,24.564,0,0,1-3.053,1.6.938.938,0,1,0,.753,1.717,26.364,26.364,0,0,0,3.287-1.721.937.937,0,1,0-.986-1.594Zm0,0" transform="translate(-202.687 -362.145)"/><path class="a" d="M82.9,167.3a.939.939,0,0,0,1.03-.835,20.466,20.466,0,0,0,.061-4,10.545,10.545,0,0,0-20.936-1.746,9.81,9.81,0,0,0-.1,2.236,3.5,3.5,0,0,1-1.019,2.559c-1.271,1.4-4.314,3.126-11.6,3.411a.938.938,0,0,0,.036,1.875h.037c6.368-.249,10.712-1.6,12.912-4.023a5.36,5.36,0,0,0,1.5-3.927,7.942,7.942,0,0,1,.079-1.81,8.67,8.67,0,0,1,17.213,1.479,1.029,1.029,0,0,0,.006.11,18.485,18.485,0,0,1-.057,3.64.938.938,0,0,0,.835,1.03Zm0,0" transform="translate(-43.252 -133.031)"/><path class="a" d="M169.209,366.015a.937.937,0,0,0-1.323-.081,24.671,24.671,0,0,1-12.434,5.457.937.937,0,1,0,.315,1.848,26.5,26.5,0,0,0,13.36-5.9.937.937,0,0,0,.082-1.324Zm0,0" transform="translate(-135.338 -320.096)"/><path class="a" d="M88.634,192.188a6.3,6.3,0,0,0-12.511-1.038,5.61,5.61,0,0,0-.048,1.271,7.713,7.713,0,0,1-2.114,5.654c-2.065,2.274-5.332,3.711-9.986,4.393-1.245.1-2.434.2-3.534.3a.938.938,0,0,0,.176,1.867c1.1-.1,2.288-.205,3.534-.3l.063-.007c5.118-.745,8.76-2.378,11.135-4.992a9.578,9.578,0,0,0,2.6-7.022,3.947,3.947,0,0,1,.024-.846,4.427,4.427,0,0,1,8.789.757v.08c.006.068.535,6.9-3.747,11.644-2.37,2.627-7.939,5.729-16.463,6.555a.937.937,0,0,0,.089,1.871.834.834,0,0,0,.092,0c7.578-.734,14.351-3.48,17.675-7.165,4.69-5.2,4.277-12.343,4.226-13.018Zm0,0" transform="translate(-52.142 -162.756)"/><path class="a" d="M90.134,246.408a24.942,24.942,0,0,1-4,1.335,30.806,30.806,0,0,1-5.784.823.938.938,0,0,0,.045,1.874h.047a32.682,32.682,0,0,0,6.138-.874,26.871,26.871,0,0,0,4.3-1.437,21.818,21.818,0,0,0,6.718-4.5c1.96-1.944,3-5.074,2.938-8.812v-.08a.937.937,0,0,0-1.6-.735,1.042,1.042,0,0,0-.275.848c.057,3.222-.79,5.867-2.384,7.447a19.965,19.965,0,0,1-6.146,4.108Zm0,0" transform="translate(-69.527 -204.584)"/><path class="a" d="M368.309,390.539a.937.937,0,0,0-.937.938v1.885a.938.938,0,0,0,1.875,0v-1.885a.938.938,0,0,0-.938-.938Zm0,0" transform="translate(-321.45 -341.813)"/><path class="a" d="M391.152,390.539a.937.937,0,0,0-.937.938v1.885a.938.938,0,1,0,1.875,0v-1.885a.938.938,0,0,0-.938-.938Zm0,0" transform="translate(-341.438 -341.813)"/><path class="a" d="M414,390.539a.938.938,0,0,0-.938.938v1.885a.938.938,0,1,0,1.875,0v-1.885a.937.937,0,0,0-.937-.938Zm0,0" transform="translate(-361.427 -341.813)"/><path class="a" d="M297.716,268.3A14.286,14.286,0,1,0,312,282.591,14.286,14.286,0,0,0,297.716,268.3Zm0,26.7a12.411,12.411,0,1,1,12.411-12.411A12.411,12.411,0,0,1,297.716,295Zm0,0" transform="translate(-248.001 -234.876)"/><path class="a" d="M36.169,57.824A28.288,28.288,0,1,1,50.254,10.158a28.08,28.08,0,0,1,8.3,20,28.577,28.577,0,0,1-.173,3.14.937.937,0,1,0,1.862.211A30.186,30.186,0,1,0,36.561,59.654a.936.936,0,1,0-.393-1.83Zm0,0" transform="translate(0.001)"/><path class="a" d="M354.113,310.96h-.193v-1.65a5.342,5.342,0,1,0-10.684,0v1.65h-.193a1.486,1.486,0,0,0-1.484,1.484v7.917a1.486,1.486,0,0,0,1.484,1.484h11.07a1.486,1.486,0,0,0,1.484-1.484v-7.917A1.486,1.486,0,0,0,354.113,310.96Zm-9-1.65a3.467,3.467,0,1,1,6.934,0v1.65h-6.933Zm8.611,10.662H343.433v-7.136h10.289Zm0,0" transform="translate(-298.864 -266.082)"/></g></svg>