<svg xmlns="http://www.w3.org/2000/svg" width="20.75" height="20" viewBox="0 0 20.75 20"><defs><style>.a{fill:none;}.b{fill:#bfd1ec;stroke:#bfd1ec;stroke-width:0.75px;}</style></defs><g transform="translate(-7.559 0.072)"><rect class="a" width="20" height="20" transform="translate(7.934 -0.072)"/><g transform="translate(7.934 3.928)"><path class="b" d="M17.3,97.838a2.283,2.283,0,1,0-2.62,0,3.956,3.956,0,0,0-1.349.791,5.119,5.119,0,0,0-1.852-1.009,2.893,2.893,0,1,0-2.992,0,5.162,5.162,0,0,0-1.832,1,3.988,3.988,0,0,0-1.334-.776,2.283,2.283,0,1,0-2.62,0A4.008,4.008,0,0,0,0,101.629v.261a.017.017,0,0,0,.016.016h4.84a5.322,5.322,0,0,0-.044.669v.269a2.1,2.1,0,0,0,2.105,2.105h6.134a2.1,2.1,0,0,0,2.105-2.105v-.269a5.322,5.322,0,0,0-.044-.669h4.871A.017.017,0,0,0,20,101.89v-.261A4.023,4.023,0,0,0,17.3,97.838Zm-2.96-1.872a1.65,1.65,0,1,1,1.682,1.65h-.063A1.648,1.648,0,0,1,14.337,95.966Zm-6.624-.823A2.26,2.26,0,1,1,10.1,97.4H9.842A2.263,2.263,0,0,1,7.713,95.143Zm-5.366.823a1.65,1.65,0,1,1,1.682,1.65H3.965A1.65,1.65,0,0,1,2.347,95.966Zm2.62,5.3H.641a3.381,3.381,0,0,1,3.332-3.019h.047a3.346,3.346,0,0,1,2.157.8A5.2,5.2,0,0,0,4.966,101.269Zm9.549,1.575a1.474,1.474,0,0,1-1.472,1.472H6.909a1.474,1.474,0,0,1-1.472-1.472v-.269a4.546,4.546,0,0,1,4.4-4.539c.044,0,.091,0,.135,0s.091,0,.135,0a4.546,4.546,0,0,1,4.4,4.539Zm.471-1.575a5.182,5.182,0,0,0-1.2-2.2,3.362,3.362,0,0,1,2.176-.819h.047a3.381,3.381,0,0,1,3.332,3.019Z" transform="translate(0 -92.25)"/></g></g></svg>