<svg xmlns="http://www.w3.org/2000/svg" width="40" height="40" viewBox="0 0 40 40"><defs><style>.a{fill:none;}.b{fill:#4171bb;}</style></defs><rect class="a" width="40" height="40"/><g transform="translate(8573 23949)"><rect class="a" width="32" height="32" transform="translate(-8569 -23945)"/><g transform="translate(-8566.5 -23945)"><path class="b" d="M27,18.5a12.727,12.727,0,0,1-.16,2.06,12.563,12.563,0,0,1-.45,1.95c-.13.42-.28.84-.45,1.25s-.37.79-.57,1.17v.01c-.16.29-.32.57-.5.84-.13.2-.27.41-.41.6a13.243,13.243,0,0,1-3.08,3.08c-.19.14-.4.28-.6.41-.27.18-.55.34-.84.5h-.01q-.57.3-1.17.57c-.41.17-.83.32-1.25.45a12.563,12.563,0,0,1-1.95.45,13.341,13.341,0,0,1-4.12,0,12.563,12.563,0,0,1-1.95-.45c-.42-.13-.84-.28-1.25-.45s-.79-.37-1.17-.57H7.06c-.29-.16-.57-.32-.84-.5-.2-.13-.41-.27-.6-.41a13.243,13.243,0,0,1-3.08-3.08c-.14-.19-.28-.4-.41-.6-.18-.27-.34-.55-.5-.84v-.01q-.3-.57-.57-1.17c-.17-.41-.32-.83-.45-1.25a12.563,12.563,0,0,1-.45-1.95,13.341,13.341,0,0,1,0-4.12,12.563,12.563,0,0,1,.45-1.95c.13-.42.28-.84.45-1.25s.37-.79.57-1.17v-.01c.16-.29.32-.57.5-.84.13-.2.27-.41.41-.6A13.243,13.243,0,0,1,5.62,7.54c.19-.14.4-.28.6-.41.27-.18.55-.34.84-.5h.01q.57-.3,1.17-.57c.25-.1.51-.2.76-.29V8.46a11,11,0,1,0,9,0V5.77c.25.09.51.19.76.29q.6.27,1.17.57h.01c.29.16.57.32.84.5.2.13.41.27.6.41a13.243,13.243,0,0,1,3.08,3.08c.14.19.28.4.41.6.18.27.34.55.5.84v.01q.3.57.57,1.17c.17.41.32.83.45,1.25a12.562,12.562,0,0,1,.45,1.95A12.727,12.727,0,0,1,27,18.5Z"/><path class="b" d="M26.84,16.44a12.562,12.562,0,0,0-.45-1.95c-.13-.42-.28-.84-.45-1.25s-.37-.79-.57-1.17v-.01c-.16-.29-.32-.57-.5-.84-.13-.2-.27-.41-.41-.6a13.639,13.639,0,0,0-3.08-3.08c-.19-.14-.4-.28-.6-.41-.27-.18-.55-.34-.84-.5h-.01q-.57-.3-1.17-.57c-.25-.1-.51-.2-.76-.29V8.46a11,11,0,1,1-9,0V5.77c-.25.09-.51.19-.76.29q-.6.27-1.17.57H7.06c-.29.16-.57.32-.84.5-.2.13-.41.27-.6.41a13.639,13.639,0,0,0-3.08,3.08c-.14.19-.28.4-.41.6-.18.27-.34.55-.5.84v.01q-.3.57-.57,1.17c-.17.41-.32.83-.45,1.25a12.563,12.563,0,0,0-.45,1.95,13.341,13.341,0,0,0,0,4.12,12.563,12.563,0,0,0,.45,1.95c.13.42.28.84.45,1.25s.37.79.57,1.17v.01c.16.29.32.57.5.84.13.2.27.41.41.6a13.639,13.639,0,0,0,3.08,3.08c.19.14.4.28.6.41.27.18.55.34.84.5h.01q.57.3,1.17.57c.41.17.83.32,1.25.45a12.563,12.563,0,0,0,1.95.45,13.341,13.341,0,0,0,4.12,0,12.563,12.563,0,0,0,1.95-.45c.42-.13.84-.28,1.25-.45s.79-.37,1.17-.57h.01c.29-.16.57-.32.84-.5.2-.13.41-.27.6-.41a13.639,13.639,0,0,0,3.08-3.08c.14-.19.28-.4.41-.6.18-.27.34-.55.5-.84v-.01q.3-.57.57-1.17c.17-.41.32-.83.45-1.25a12.563,12.563,0,0,0,.45-1.95,13.341,13.341,0,0,0,0-4.12Z"/><path class="b" d="M13.5,0A2.5,2.5,0,0,0,11,2.5v11a2.5,2.5,0,0,0,5,0V2.5A2.5,2.5,0,0,0,13.5,0ZM14,13.5a.5.5,0,0,1-1,0V2.5a.5.5,0,0,1,1,0Z"/></g></g></svg>