<svg xmlns="http://www.w3.org/2000/svg" width="20.509" height="19.432" viewBox="0 0 20.509 19.432"><defs><style>.a{fill:#bfd1ec;stroke:#bfd1ec;stroke-width:0.5px;}</style></defs><g transform="translate(0.257 0.252)"><path class="a" d="M122.55,290.3a.391.391,0,1,0-.534-.143A.391.391,0,0,0,122.55,290.3Zm0,0" transform="translate(-117.199 -278.264)"/><path class="a" d="M3.749,36.219l1.967,3.407a1.562,1.562,0,1,0,2.706-1.562l-1.172-2.03,1.015-.586a.391.391,0,0,0,.143-.534l-.508-.88,7.482-1.468a1.172,1.172,0,0,0,.95-1.756l-1.3-2.249.83-1.257a.391.391,0,0,0,.012-.411L15.1,25.542a.391.391,0,0,0-.362-.195l-1.5.09-1.441-2.5a1.162,1.162,0,0,0-1-.586h-.015a1.162,1.162,0,0,0-.987.54l-5.1,6.5L1.367,31.312a2.734,2.734,0,0,0,2.382,4.907Zm4,2.236a.781.781,0,0,1-1.353.781L4.44,35.852l1.353-.781,1.953,3.383Zm-.886-3.1-.391-.677.677-.391.391.677Zm7.679-9.215.54.935-.481.729-.93-1.612Zm-4.1-2.818a.391.391,0,0,1,.672.008l4.543,7.87a.391.391,0,0,1-.329.586,1.435,1.435,0,0,0-.214.036L10.307,23.5c.1-.13.114-.142.134-.175Zm-.654.837L14.3,31.983,7.488,33.319,5.416,29.73ZM1.043,34.656a1.952,1.952,0,0,1,.715-2.668L4.8,30.23l1.953,3.383L3.711,35.371a1.956,1.956,0,0,1-2.668-.715Zm0,0" transform="translate(0 -21.482)"/><path class="a" d="M45.154,309.768a.391.391,0,0,0-.534-.143l-.677.391a.391.391,0,0,1-.534-.143.391.391,0,0,0-.677.391,1.173,1.173,0,0,0,1.6.429l.677-.391A.391.391,0,0,0,45.154,309.768Zm0,0" transform="translate(-41.014 -297.48)"/><path class="a" d="M438.652,42.53l-2.177,1.211a.391.391,0,0,0,.38.683l2.177-1.211a.391.391,0,0,0-.38-.683Zm0,0" transform="translate(-419.233 -40.822)"/><path class="a" d="M442.064,137.039l-1.509-.4a.391.391,0,1,0-.2.755l1.509.4a.391.391,0,1,0,.2-.755Zm0,0" transform="translate(-422.873 -131.284)"/><path class="a" d="M383.91.29l-.4,1.509a.391.391,0,1,0,.755.2l.4-1.509a.391.391,0,1,0-.755-.2Zm0,0" transform="translate(-368.512 0)"/></g></svg>