<svg xmlns="http://www.w3.org/2000/svg" width="32" height="24.375" viewBox="0 0 32 24.375"><defs><style>.a{fill:#4171bb;}</style></defs><path class="a" d="M29.187,61H2.812A2.817,2.817,0,0,0,0,63.812v18.75a2.817,2.817,0,0,0,2.812,2.812H29.187A2.817,2.817,0,0,0,32,82.562V63.812A2.817,2.817,0,0,0,29.187,61ZM28.8,62.875,16.06,75.614,3.21,62.875ZM1.875,82.174V64.192l9.03,8.952ZM3.2,83.5l9.036-9.036L15.4,77.6a.937.937,0,0,0,1.323,0l3.087-3.087L28.8,83.5Zm26.924-1.326-8.987-8.987L30.125,64.2Z" transform="translate(0 -61)"/></svg>