<svg xmlns="http://www.w3.org/2000/svg" width="76" height="76.5" viewBox="0 0 76 76.5"><defs><style>.a{fill:#ffee97;}.b,.d{fill:none;stroke:#4171bb;stroke-linecap:round;}.b{stroke-width:3px;}.c{fill:#4171bb;}.d{stroke-width:2px;}</style></defs><g transform="translate(1.5)"><rect class="a" width="72.088" height="5.47" transform="translate(0.456 69.153)"/><line class="b" x1="73" transform="translate(0 75)"/><path class="c" d="M43.568,414.62a1.172,1.172,0,0,0,.473-.1c3.782-1.647,10.169-2.5,18.99-2.549l.856,1.714a1.186,1.186,0,0,0,2.121-1.06l-1.184-2.371a1.187,1.187,0,0,0-1.061-.656c-9.662,0-16.423.9-20.669,2.747a1.187,1.187,0,0,0,.474,2.274Z" transform="translate(-36.023 -349.25)"/><path class="c" d="M69.5,343.236H67.1v-5.928a1.182,1.182,0,0,0-.351-.838l-7.2-7.122a3.474,3.474,0,0,0,.361-1.525,3.621,3.621,0,1,0-2.055,3.2L64.7,337.8v5.437H2.4a2.386,2.386,0,0,0-2.4,2.37v3.557a1.2,1.2,0,1,0,2.4,0v-3.557H69.5v3.557a1.2,1.2,0,1,0,2.4,0v-3.557a2.387,2.387,0,0,0-2.4-2.371ZM56.32,329.008a1.191,1.191,0,1,1,.845-.343,1.186,1.186,0,0,1-.845.343Z" transform="translate(0.47 -275.774)"/><path class="c" d="M105.147,35.465c.88,2.25,3.79,9.506,5.9,12.619l.191.283c1.549,2.308,4.141,6.172,12.88,6.172s11.33-3.864,12.88-6.172l.191-.283c2.112-3.112,5.021-10.368,5.9-12.619a3.577,3.577,0,0,0,2.747-3.453V27.27a3.569,3.569,0,0,0-2.413-3.354V17.784c0-4.681-2.509-13.328-11.788-14.162a2.662,2.662,0,0,0-.416-1.343C130.035.4,126.705,0,124.119,0,102.649,0,102.4,19.954,102.4,20.156a1.194,1.194,0,0,0,1.2,1.184h0a1.2,1.2,0,0,0,1.207-1.183c0-.726.274-17.786,19.306-17.786,3.412,0,4.78.726,5.05,1.155.037.06.14.223-.1.687a1.168,1.168,0,0,0,.053,1.154,1.215,1.215,0,0,0,1.027.562C140.843,5.929,141,17.3,141,17.785V24.9a1.2,1.2,0,0,0,1.207,1.186,1.2,1.2,0,0,1,1.207,1.186v4.743A1.2,1.2,0,0,1,142.21,33.2a1.209,1.209,0,0,0-1.131.769c-.035.094-3.6,9.4-5.906,12.8l-.2.294c-1.446,2.156-3.427,5.106-10.864,5.106s-9.419-2.951-10.864-5.106l-.2-.294c-2.308-3.4-5.871-12.706-5.908-12.8a1.206,1.206,0,0,0-1.129-.769,1.2,1.2,0,0,1-1.207-1.186V27.27a1.168,1.168,0,0,1,.343-.826,3.332,3.332,0,0,0,2.834,1.982l4.129,3.042a4.79,4.79,0,0,0,4.76,4.1h2.413a4.79,4.79,0,0,0,4.826-4.742,4.79,4.79,0,0,0,4.826,4.742h2.413a4.789,4.789,0,0,0,4.76-4.1l4.41-3.249a1.171,1.171,0,0,0,.241-1.66,1.219,1.219,0,0,0-1.689-.237l-3.076,2.267a3.6,3.6,0,0,0-3.44-2.5h-4.826a3.593,3.593,0,0,0-3.62,3.557,3.593,3.593,0,0,0-3.62-3.557h-4.826a3.607,3.607,0,0,0-3.44,2.5l-2.3-1.7a31.87,31.87,0,0,0,2.054-7.932c3.8-.066,14.807-.523,19.7-3.525,1.11,4.211,4.673,7.755,4.853,7.931a1.221,1.221,0,0,0,1.706,0,1.17,1.17,0,0,0,0-1.676c-.045-.044-4.473-4.444-4.473-8.647a1.19,1.19,0,0,0-.884-1.143,1.216,1.216,0,0,0-1.356.532C129.762,15.3,118.366,16.6,110.834,16.6a1.2,1.2,0,0,0-1.207,1.186,27.2,27.2,0,0,1-1.91,8.133,1.155,1.155,0,0,1-.5-1.02,1.2,1.2,0,0,0-1.207-1.186,3.593,3.593,0,0,0-3.62,3.557v4.742a3.576,3.576,0,0,0,2.757,3.456Zm21.385-5.824a1.2,1.2,0,0,1,1.207-1.186h4.826a1.2,1.2,0,0,1,1.207,1.186v1.186a2.4,2.4,0,0,1-2.413,2.371h-2.413a2.4,2.4,0,0,1-2.413-2.371V29.641Zm-12.066,0a1.2,1.2,0,0,1,1.207-1.186H120.5a1.2,1.2,0,0,1,1.207,1.186v1.186a2.4,2.4,0,0,1-2.413,2.371H116.88a2.4,2.4,0,0,1-2.413-2.371Z" transform="translate(-87.702)"/><path class="c" d="M225.188,292.509a1.188,1.188,0,0,0-1.181-1.189,10.73,10.73,0,0,1-4.216-1.061,1.19,1.19,0,0,0-1.06,0,10.733,10.733,0,0,1-4.213,1.061,1.186,1.186,0,1,0,0,2.371,13.03,13.03,0,0,0,4.742-1.063,13.026,13.026,0,0,0,4.74,1.063,1.185,1.185,0,0,0,1.188-1.182Z" transform="translate(-182.844 -247.771)"/><path class="c" d="M301.032,409.936a1.19,1.19,0,0,0-1.053.647l-1.186,2.321a1.186,1.186,0,0,0,2.113,1.079l.855-1.676a68.845,68.845,0,0,1,15.525,1.442,1.185,1.185,0,0,0,.566-2.3,71.384,71.384,0,0,0-16.82-1.513Z" transform="translate(-255.941 -349.539)"/><path class="c" d="M247.467,410.786v2.371a1.186,1.186,0,1,0,2.371,0v-2.371a1.186,1.186,0,0,0-2.371,0Z" transform="translate(-212.235 -349.251)"/><path class="c" d="M240.12,324.267a1.186,1.186,0,0,0,0,2.371h2.371a1.186,1.186,0,1,0,0-2.371Z" transform="translate(-204.888 -276.96)"/><path class="d" d="M15.753,6.158S14.035-.382,8.115.018.668,4.7,0,6.158" transform="translate(28.433 55.544) rotate(0.974)"/></g></svg>