<svg xmlns="http://www.w3.org/2000/svg" width="54.928" height="75" viewBox="0 0 54.928 75"><defs><style>.a{fill:#ffee97;}.b{fill:#4171bb;}</style></defs><g transform="translate(-0.004 0)"><path class="a" d="M81.476,23.121v5.433s13.53,10.547,32.813.746a6.517,6.517,0,0,0,.852-3.3V22.375L99.054,29.3H97.03Z" transform="translate(-70.417 -3.305)"/><path class="b" d="M187.15,290a1.1,1.1,0,0,0-1.1,1.1v1.758a1.1,1.1,0,0,0,2.2,0V291.1A1.1,1.1,0,0,0,187.15,290Z" transform="translate(-168.832 -247.52)"/><path class="b" d="M312.048,293.955a1.1,1.1,0,0,0,1.1-1.1V291.1a1.1,1.1,0,0,0-2.2,0v1.758a1.1,1.1,0,0,0,1.1,1.1Z" transform="translate(-275.434 -247.52)"/><path class="b" d="M237.129,301.516a2.1,2.1,0,0,1-3.167,0,1.1,1.1,0,0,0-1.656,1.444,4.295,4.295,0,0,0,6.48,0,1.1,1.1,0,0,0-1.656-1.444Z" transform="translate(-208.079 -257.027)"/><path class="b" d="M120.336,36.312a25.864,25.864,0,0,0-6.253-11.167V20.189l5.875-2.515a4.394,4.394,0,0,0,0-8.08L98.992.621a7.69,7.69,0,0,0-6.053,0L81.659,5.449a1.1,1.1,0,1,0,.865,2.02L93.8,2.64a5.494,5.494,0,0,1,4.323,0l20.965,8.974a2.194,2.194,0,0,1,0,4.04L98.127,24.629a5.487,5.487,0,0,1-4.323,0L72.839,15.654a2.194,2.194,0,0,1,0-4.04L78.484,9.2a1.1,1.1,0,1,0-.865-2.02L71.974,9.6a4.392,4.392,0,0,0-.38,7.894V19.6a4.028,4.028,0,1,0,2.2,0V18.453l4.056,1.736v4.957c-4.312,4.606-6.27,10.394-6.25,11.147a6.221,6.221,0,0,0-1.119,9.927c.555,10.242,5.534,19.524,13.125,24.5a12.733,12.733,0,0,0-.086,1.452V73.9a1.1,1.1,0,0,0,1.1,1.1h22.705a1.1,1.1,0,0,0,1.1-1.1V72.17a12.728,12.728,0,0,0-.086-1.45,25.99,25.99,0,0,0,4.168-3.41,1.1,1.1,0,0,0-1.557-1.55,24.011,24.011,0,0,1-3.1,2.635,12.642,12.642,0,0,0-1.763-3.538,2.936,2.936,0,0,0-1.335-2.646A22.361,22.361,0,0,0,117.425,47.9a6.2,6.2,0,0,0,1.727-.309,30.619,30.619,0,0,1-5.49,14.954,1.1,1.1,0,1,0,1.785,1.281,33.074,33.074,0,0,0,6.012-17.606,6.209,6.209,0,0,0,1.973-4.543,6.106,6.106,0,0,0-3.1-5.363ZM74.524,23.471a1.831,1.831,0,1,1-1.831-1.831A1.831,1.831,0,0,1,74.524,23.471Zm5.521-2.342,12.894,5.52a7.682,7.682,0,0,0,6.053,0l12.893-5.519v3.815a32.541,32.541,0,0,1-31.841,0Zm-.888,5.836a34.681,34.681,0,0,0,14.72,4.274,24.339,24.339,0,0,1-18.021,9.306,20.165,20.165,0,0,1,.558-3.734,1.1,1.1,0,0,0-.2-.941,1.181,1.181,0,0,0-1.051-.422,10.022,10.022,0,0,0-1.052.033A25.336,25.336,0,0,1,79.157,26.965ZM70.7,41.675a4.02,4.02,0,0,1,3.28-3.959,22.506,22.506,0,0,0-.35,3.959h0a22.486,22.486,0,0,0,.351,3.959A4.035,4.035,0,0,1,70.7,41.675Zm13.4,26.72c-6.262-4.447-10.46-12.174-11.318-20.807a6.183,6.183,0,0,0,1.725.308A22.359,22.359,0,0,0,87.192,62.211a2.937,2.937,0,0,0-1.335,2.646,12.641,12.641,0,0,0-1.763,3.538ZM85.712,72.8v-.63a10.5,10.5,0,0,1,.157-1.807,10.37,10.37,0,0,1,1.176-3.285l3.833,3.382a3.155,3.155,0,0,0,1.066,2.34Zm13.145-2.838v.478a.954.954,0,0,1-.482.828l-2.409,1.368L93.557,71.27a.954.954,0,0,1-.482-.828v-.478a1.1,1.1,0,0,0-.372-.824l-4.392-3.876a.767.767,0,0,1,.263-1.3l1.1-.37A9.739,9.739,0,0,0,95.6,69.538a1.1,1.1,0,0,0,.728,0,9.739,9.739,0,0,0,5.928-5.946l1.1.37a.767.767,0,0,1,.263,1.3l-4.392,3.876a1.1,1.1,0,0,0-.372.824Zm-6.774-6.3a22.045,22.045,0,0,0,7.766,0,7.536,7.536,0,0,1-3.883,3.657,7.534,7.534,0,0,1-3.883-3.65Zm12.8,3.409a10.367,10.367,0,0,1,1.176,3.284,10.507,10.507,0,0,1,.157,1.809V72.8H99.988a3.156,3.156,0,0,0,1.066-2.343ZM95.962,61.81A20.1,20.1,0,0,1,75.85,42.74,26.547,26.547,0,0,0,95.962,32.12a26.549,26.549,0,0,0,20.112,10.622A20.1,20.1,0,0,1,95.966,61.816Zm20.825-26.367a1.1,1.1,0,0,0-1.066,1.363,16.472,16.472,0,0,1,.378,3.735,24.344,24.344,0,0,1-18.048-9.308,34.687,34.687,0,0,0,14.719-4.275,25.337,25.337,0,0,1,5.059,8.55,8.416,8.416,0,0,0-1.038-.059Zm1.163,10.184a22.5,22.5,0,0,0,.351-3.958h0a30.573,30.573,0,0,0-.169-3.875,3.92,3.92,0,0,1,3.1,3.876,4.035,4.035,0,0,1-3.279,3.964Z" transform="translate(-68.5)"/></g></svg>