<svg xmlns="http://www.w3.org/2000/svg" width="20.6" height="20" viewBox="0 0 20.6 20"><defs><style>.a{fill:none;}.b{fill:#bfd1ec;stroke:#bfd1ec;stroke-width:0.6px;}</style></defs><g transform="translate(6338.3 23671)"><rect class="a" width="20" height="20" transform="translate(-6338 -23671)"/><path class="b" d="M17.859,3.641H10.25L8.343,1.292A2.131,2.131,0,0,0,6.7.5H2.137A2.154,2.154,0,0,0,0,2.646V15.258A2.153,2.153,0,0,0,2.137,17.4H17.863A2.154,2.154,0,0,0,20,15.253V5.76A2.138,2.138,0,0,0,17.859,3.641ZM.885,15.253V2.646A1.267,1.267,0,0,1,2.137,1.385H6.7a1.24,1.24,0,0,1,.96.469L9.1,3.641H4.4A2.138,2.138,0,0,0,2.256,5.76V16.514H2.137A1.267,1.267,0,0,1,.885,15.253Zm18.226,0a1.27,1.27,0,0,1-1.252,1.261H3.141V5.76A1.254,1.254,0,0,1,4.4,4.526H17.859A1.25,1.25,0,0,1,19.111,5.76Zm0,0" transform="translate(-6338 -23670)"/><path class="b" d="M211.577,237.191h-.708a2.494,2.494,0,0,0-2.491,2.508v2.044a.429.429,0,0,0,.42.447h4.844a.447.447,0,0,0,.442-.447V239.7a2.512,2.512,0,0,0-2.507-2.509ZM213.2,241.3h-3.937v-1.6a1.61,1.61,0,0,1,1.606-1.624h.708A1.625,1.625,0,0,1,213.2,239.7Zm0,0" transform="translate(-6538.239 -23897.445)"/><path class="b" d="M235.818,144.732a1.845,1.845,0,1,0-1.845-1.845,1.845,1.845,0,0,0,1.845,1.845Zm0-2.8a.952.952,0,1,1-.681.278.96.96,0,0,1,.681-.278Zm0,0" transform="translate(-6562.833 -23805.053)"/></g></svg>