<svg xmlns="http://www.w3.org/2000/svg" width="75" height="75.004" viewBox="0 0 75 75.004"><defs><style>.a{fill:#4171bb;}</style></defs><g transform="translate(65 15)"><path class="a" d="M448.734,102.4a5,5,0,1,0,5,5,5,5,0,0,0-5-5Zm0,7.5a2.5,2.5,0,1,1,2.5-2.5,2.5,2.5,0,0,1-2.5,2.5Z" transform="translate(-443.734 -102.4)"/></g><g transform="translate(0 56.25)"><path class="a" d="M5,384a5,5,0,1,0,5,5A5,5,0,0,0,5,384Zm0,7.5A2.5,2.5,0,1,1,7.5,389,2.5,2.5,0,0,1,5,391.5Z" transform="translate(0 -384)"/></g><g transform="translate(54.999 11.249)"><path class="a" d="M388.039,82.123l-10.784-5.206a1.25,1.25,0,1,0-1.086,2.251l10.784,5.206a1.25,1.25,0,0,0,1.086-2.251Z" transform="translate(-375.463 -76.792)"/></g><g transform="translate(51.25 65)"><path class="a" d="M354.867,443.733a5,5,0,1,0,5,5,5,5,0,0,0-5-5Zm0,7.5a2.5,2.5,0,1,1,2.5-2.5,2.5,2.5,0,0,1-2.5,2.5Z" transform="translate(-349.867 -443.733)"/></g><g transform="translate(41.249 61.248)"><path class="a" d="M294.172,423.456l-10.784-5.206a1.25,1.25,0,0,0-1.088,2.25l10.784,5.206a1.25,1.25,0,0,0,1.086-2.251Z" transform="translate(-281.596 -418.124)"/></g><g transform="translate(32.5 33.75)"><path class="a" d="M226.867,230.4a5,5,0,1,0,5,5A5,5,0,0,0,226.867,230.4Zm0,7.5a2.5,2.5,0,1,1,2.5-2.5A2.5,2.5,0,0,1,226.867,237.9Z" transform="translate(-221.867 -230.4)"/></g><g transform="translate(25 28.751)"><path class="a" d="M180.967,202.991l-8.284-6.456a1.251,1.251,0,1,0-1.537,1.973l8.284,6.456a1.251,1.251,0,1,0,1.538-1.973Z" transform="translate(-170.664 -196.272)"/></g><g transform="translate(46.25 32.5)"><path class="a" d="M329.483,221.867a13.75,13.75,0,1,0,13.75,13.75A13.75,13.75,0,0,0,329.483,221.867Zm0,25a11.25,11.25,0,1,1,11.25-11.25,11.25,11.25,0,0,1-11.25,11.25Z" transform="translate(-315.733 -221.867)"/></g><g transform="translate(55 37.5)"><path class="a" d="M380.467,256a5,5,0,1,0,5,5,5,5,0,0,0-5-5Zm0,7.5a2.5,2.5,0,1,1,2.5-2.5,2.5,2.5,0,0,1-2.5,2.5Z" transform="translate(-375.467 -256)"/></g><g transform="translate(52.5 50)"><path class="a" d="M369.526,341.333h-7.252A3.827,3.827,0,0,0,358.4,345.1v3.3a1.251,1.251,0,0,0,.624,1.083,13.68,13.68,0,0,0,13.753,0,1.249,1.249,0,0,0,.624-1.081v-3.3A3.827,3.827,0,0,0,369.526,341.333Zm1.374,6.319a11.335,11.335,0,0,1-10,0V345.1a1.327,1.327,0,0,1,1.374-1.27h7.252a1.327,1.327,0,0,1,1.374,1.27v2.549Z" transform="translate(-358.4 -341.333)"/></g><g transform="translate(16.25 47.5)"><path class="a" d="M124.683,324.267a13.75,13.75,0,1,0,13.75,13.75A13.75,13.75,0,0,0,124.683,324.267Zm0,25a11.25,11.25,0,1,1,11.25-11.25A11.25,11.25,0,0,1,124.683,349.267Z" transform="translate(-110.933 -324.267)"/></g><g transform="translate(25 52.5)"><path class="a" d="M175.667,358.4a5,5,0,1,0,5,5,5,5,0,0,0-5-5Zm0,7.5a2.5,2.5,0,1,1,2.5-2.5,2.5,2.5,0,0,1-2.5,2.5Z" transform="translate(-170.667 -358.4)"/></g><g transform="translate(22.5 65)"><path class="a" d="M164.726,443.733h-7.252A3.827,3.827,0,0,0,153.6,447.5v3.3a1.251,1.251,0,0,0,.624,1.083,13.68,13.68,0,0,0,13.752,0,1.249,1.249,0,0,0,.624-1.081v-3.3a3.827,3.827,0,0,0-3.874-3.769Zm1.374,6.319a11.334,11.334,0,0,1-10,0V447.5a1.327,1.327,0,0,1,1.374-1.27h7.252a1.327,1.327,0,0,1,1.374,1.27v2.549Z" transform="translate(-153.6 -443.733)"/></g><g transform="translate(0 16.25)"><path class="a" d="M13.75,110.933a13.75,13.75,0,1,0,13.75,13.75,13.75,13.75,0,0,0-13.75-13.75Zm0,25A11.25,11.25,0,1,1,25,124.683a11.25,11.25,0,0,1-11.25,11.25Z" transform="translate(0 -110.933)"/></g><g transform="translate(8.75 21.25)"><path class="a" d="M64.734,145.067a5,5,0,1,0,5,5A5,5,0,0,0,64.734,145.067Zm0,7.5a2.5,2.5,0,1,1,2.5-2.5A2.5,2.5,0,0,1,64.734,152.567Z" transform="translate(-59.734 -145.067)"/></g><g transform="translate(6.25 33.75)"><path class="a" d="M53.793,230.4H46.541a3.827,3.827,0,0,0-3.874,3.769v3.3a1.251,1.251,0,0,0,.624,1.083,13.68,13.68,0,0,0,13.752,0,1.249,1.249,0,0,0,.624-1.081v-3.3a3.827,3.827,0,0,0-3.874-3.771Zm1.374,6.319a11.334,11.334,0,0,1-10,0V234.17a1.327,1.327,0,0,1,1.374-1.27h7.252a1.327,1.327,0,0,1,1.374,1.27Z" transform="translate(-42.667 -230.4)"/></g><g transform="translate(30)"><path class="a" d="M218.55,0A13.75,13.75,0,1,0,232.3,13.75,13.75,13.75,0,0,0,218.55,0Zm0,25A11.25,11.25,0,1,1,229.8,13.75,11.25,11.25,0,0,1,218.55,25Z" transform="translate(-204.8)"/></g><g transform="translate(38.75 5)"><path class="a" d="M269.534,34.133a5,5,0,1,0,5,5A5,5,0,0,0,269.534,34.133Zm0,7.5a2.5,2.5,0,1,1,2.5-2.5A2.5,2.5,0,0,1,269.534,41.633Z" transform="translate(-264.534 -34.133)"/></g><g transform="translate(36.25 17.5)"><path class="a" d="M258.593,119.467h-7.252a3.827,3.827,0,0,0-3.874,3.769v3.295a1.251,1.251,0,0,0,.624,1.083,13.68,13.68,0,0,0,13.753,0,1.249,1.249,0,0,0,.624-1.081v-3.3A3.827,3.827,0,0,0,258.593,119.467Zm1.374,6.319a11.334,11.334,0,0,1-10,0v-2.549a1.327,1.327,0,0,1,1.374-1.27h7.252a1.327,1.327,0,0,1,1.374,1.27Z" transform="translate(-247.467 -119.467)"/></g><g transform="translate(21.338 12.5)"><path class="a" d="M156.534,85.77a1.252,1.252,0,0,0-1.762-.136l-8.662,7.413a1.25,1.25,0,0,0,1.625,1.9l8.662-7.413a1.249,1.249,0,0,0,.137-1.764Z" transform="translate(-145.671 -85.333)"/></g><g transform="translate(50 22.501)"><path class="a" d="M351.083,164.11l-7.5-10a1.25,1.25,0,1,0-2,1.5l7.5,10a1.25,1.25,0,0,0,2-1.5Z" transform="translate(-341.333 -153.61)"/></g><g transform="translate(40.259 49.884)"><path class="a" d="M284.065,341.04a1.25,1.25,0,0,0-1.75-.25l-6.982,5.236a1.25,1.25,0,0,0,1.5,2l6.982-5.236a1.248,1.248,0,0,0,.25-1.75Z" transform="translate(-274.833 -340.54)"/></g><g transform="translate(7.5 60)"><path class="a" d="M61.2,409.6H52.45a1.25,1.25,0,0,0,0,2.5H61.2a1.25,1.25,0,1,0,0-2.5Z" transform="translate(-51.2 -409.6)"/></g><g transform="translate(8.75)"><path class="a" d="M64.733,0a5,5,0,1,0,5,5A5,5,0,0,0,64.733,0Zm0,7.5a2.5,2.5,0,1,1,2.5-2.5A2.5,2.5,0,0,1,64.733,7.5Z" transform="translate(-59.733)"/></g><g transform="translate(12.5 7.5)"><path class="a" d="M86.584,51.2a1.25,1.25,0,0,0-1.25,1.25V61.2a1.25,1.25,0,0,0,2.5,0V52.45a1.25,1.25,0,0,0-1.25-1.25Z" transform="translate(-85.334 -51.2)"/></g></svg>