<svg xmlns="http://www.w3.org/2000/svg" width="45.001" height="45.001" viewBox="0 0 45.001 45.001"><defs><style>.a{fill:#ff771a;}.b{fill:#ff4a05;}.c{fill:#fff;}.d{fill:#ddebf0;}</style></defs><g transform="translate(0 0.001)"><path class="a" d="M45,22.5A22.5,22.5,0,0,1,22.648,45c-.015,0-.031,0-.046,0h-.1A22.5,22.5,0,0,1,6.591,6.589,22.353,22.353,0,0,1,22.5,0h.149A22.5,22.5,0,0,1,45,22.5Zm0,0"/><path class="b" d="M279.559,22.511a22.5,22.5,0,0,1-22.353,22.5c-.015,0-.031,0-.046,0v-45h.047a22.5,22.5,0,0,1,22.351,22.5Zm0,0" transform="translate(-234.558 -0.011)"/><path d="M257.175,107.8Zm0,0" transform="translate(-234.564 -98.328)"/><path class="c" d="M222.108,111.55v10.058a3.753,3.753,0,0,1-3.749,3.75h-.01a3.968,3.968,0,0,1-2.642-1.1,3.728,3.728,0,0,1-1.1-2.652V111.55a3.816,3.816,0,0,1,3.74-3.75h.01a3.754,3.754,0,0,1,3.749,3.75Zm0,0" transform="translate(-195.747 -98.327)"/><path d="M257.17,307.563Zm0,0" transform="translate(-234.559 -280.531)"/><path class="c" d="M223.988,324.818a3.552,3.552,0,0,1-3.549,3.549h-.009a3.549,3.549,0,0,1,0-7.1h.009A3.552,3.552,0,0,1,223.988,324.818Zm0,0" transform="translate(-197.828 -293.034)"/><g transform="translate(22.602 9.474)"><path class="d" d="M260.718,324.818a3.553,3.553,0,0,1-3.549,3.549h-.009v-7.1h.009A3.552,3.552,0,0,1,260.718,324.818Zm0,0" transform="translate(-257.16 -302.508)"/><path class="d" d="M260.919,111.551v10.058a3.753,3.753,0,0,1-3.749,3.75h-.01V107.8h.01a3.754,3.754,0,0,1,3.749,3.75Zm0,0" transform="translate(-257.16 -107.801)"/></g></g></svg>