<svg xmlns="http://www.w3.org/2000/svg" width="83.878" height="76.5" viewBox="0 0 83.878 76.5"><defs><style>.a,.c{fill:none;stroke:#4171bb;stroke-linecap:round;}.a{stroke-width:3px;}.b{fill:#4171bb;}.c{stroke-width:2.3px;}</style></defs><g transform="translate(1.222)"><line class="a" x1="80.878" transform="translate(0.278 75)"/><g transform="translate(18.655 25.989)"><path class="b" d="M122.351,182.183a1.1,1.1,0,0,0-1.542.161,2.149,2.149,0,0,1-3.486,0,1.1,1.1,0,1,0-1.7,1.381,4.337,4.337,0,0,0,6.89,0,1.1,1.1,0,0,0-.162-1.542Z" transform="translate(-115.377 -181.938)"/></g><g transform="translate(15.677 19.15)"><path class="b" d="M98.721,137.563a1.1,1.1,0,0,0-1.1,1.1v1.3a1.1,1.1,0,1,0,2.192,0v-1.3a1.1,1.1,0,0,0-1.092-1.1Z" transform="translate(-97.625 -137.563)"/></g><g transform="translate(27.078 19.15)"><path class="b" d="M169.721,137.563a1.1,1.1,0,0,0-1.1,1.1v1.3a1.1,1.1,0,1,0,2.192,0v-1.3a1.1,1.1,0,0,0-1.092-1.1Z" transform="translate(-168.625 -137.563)"/></g><g transform="translate(5.188 46.483)"><path class="b" d="M40.169,311.98l-2.594-5.188a1.1,1.1,0,1,0-1.961.98l2.478,4.957v20.493a1.1,1.1,0,1,0,2.192,0V312.47A1.094,1.094,0,0,0,40.169,311.98Z" transform="translate(-35.498 -306.185)"/></g><g transform="translate(34.317 46.483)"><path class="b" d="M217.18,306.3a1.1,1.1,0,0,0-1.47.49l-2.594,5.188a1.1,1.1,0,0,0-.116.49V333.22a1.1,1.1,0,1,0,2.192,0V312.729l2.478-4.957A1.1,1.1,0,0,0,217.18,306.3Z" transform="translate(-213 -306.185)"/></g><g transform="translate(57.4 32.828)"><path class="b" d="M361.976,226.557a1.1,1.1,0,0,0-1.541.161,2.149,2.149,0,0,1-3.486,0,1.1,1.1,0,0,0-1.7,1.381,4.337,4.337,0,0,0,6.891,0,1.1,1.1,0,0,0-.164-1.542Z" transform="translate(-355.002 -226.312)"/></g><g transform="translate(54.156 25.989)"><path class="b" d="M338.346,181.938a1.1,1.1,0,0,0-1.1,1.1v1.3a1.1,1.1,0,1,0,2.192,0v-1.3a1.1,1.1,0,0,0-1.092-1.1Z" transform="translate(-337.25 -181.938)"/></g><g transform="translate(65.557 25.989)"><path class="b" d="M409.346,181.938a1.1,1.1,0,0,0-1.1,1.1v1.3a1.1,1.1,0,1,0,2.192,0v-1.3a1.1,1.1,0,0,0-1.092-1.1Z" transform="translate(-408.25 -181.938)"/></g><g transform="translate(43.491)"><path class="b" d="M283.874,62.845,274.98,59.1a1.57,1.57,0,0,1-.941-1.463V54.806a12.656,12.656,0,0,0,1.738-1.24,13.6,13.6,0,0,0,4.431-7.467,14.174,14.174,0,0,0,.317-2.984c0-6.716-4.624-7.681-9.1-8.615-2.86-.6-5.817-1.215-8.176-3.2a1.055,1.055,0,0,0-.919-.225,1.108,1.108,0,0,0-.746.609,13.584,13.584,0,0,1-1.659,2.523c-.88,1.049-2.261,2.3-3.847,2.3a3.515,3.515,0,0,0-1.5.336V34.929c0-7.64,5.909-13.855,13.171-13.855s13.171,6.215,13.171,13.855v2.729a1.1,1.1,0,1,0,2.192,0V34.929a16.324,16.324,0,0,0-7.855-14.1,5.871,5.871,0,0,0,.073-.913c0-3.645-3.4-6.61-7.581-6.61s-7.581,2.965-7.581,6.61a5.842,5.842,0,0,0,.073.913,16.324,16.324,0,0,0-7.855,14.1v5.457a3.869,3.869,0,0,0,2.628,3.718,14.083,14.083,0,0,0,.286,2,13.6,13.6,0,0,0,4.431,7.467,12.648,12.648,0,0,0,1.738,1.24V57.64a1.57,1.57,0,0,1-.942,1.463l-8.894,3.742a5.226,5.226,0,0,0-3.135,4.871V74.5a1.185,1.185,0,0,0,.321.816,1.069,1.069,0,0,0,.775.337h.2V86.774a1.1,1.1,0,1,0,2.192,0V75.648h3V86.774a1.1,1.1,0,1,0,2.192,0V71.767a1.1,1.1,0,1,0-2.192,0v1.576h-4.293V67.716a2.929,2.929,0,0,1,1.757-2.73l6.916-2.91a20.743,20.743,0,0,0,7.9,7.993,1.048,1.048,0,0,0,.98,0,20.741,20.741,0,0,0,7.9-7.993l6.917,2.91a2.929,2.929,0,0,1,1.757,2.73v5.626h-4.293V71.767a1.1,1.1,0,1,0-2.192,0V86.774a1.1,1.1,0,1,0,2.192,0V75.648h3V86.774a1.1,1.1,0,1,0,2.192,0V75.648h.2a1.126,1.126,0,0,0,1.1-1.153V67.716a5.226,5.226,0,0,0-3.145-4.871Zm-16.12-47.228c2.918,0,5.3,1.862,5.385,4.177a14.651,14.651,0,0,0-10.77,0C262.454,17.48,264.836,15.617,267.754,15.617ZM261.11,51.773a11.264,11.264,0,0,1-3.671-6.184,11.764,11.764,0,0,1-.262-2.474,1.126,1.126,0,0,0-1.1-1.153,1.578,1.578,0,0,1,0-3.151c3.324,0,5.734-3.166,6.823-4.937a21.877,21.877,0,0,0,8.1,2.888c4.817,1.006,7.331,1.745,7.331,6.353a11.766,11.766,0,0,1-.262,2.474,11.262,11.262,0,0,1-3.671,6.184A10.176,10.176,0,0,1,261.11,51.773Zm6.644,15.962A18.849,18.849,0,0,1,261.43,61.2a3.871,3.871,0,0,0,2.232-3.563V55.835a12.1,12.1,0,0,0,8.184,0v1.8a3.871,3.871,0,0,0,2.232,3.563,18.849,18.849,0,0,1-6.324,6.532Z" transform="translate(-248.5 -13.311)"/></g><path class="b" d="M37.549,53.417l-7.117-2.246L29.245,49.3a1.091,1.091,0,0,0-.755-.5,1.042,1.042,0,0,0-.358.008V47.093a13.612,13.612,0,0,0,5.154-9.809,3.869,3.869,0,0,0,2.628-3.718,3.968,3.968,0,0,0-1.3-2.94V22.652A6.7,6.7,0,0,0,31.84,17.2a5,5,0,0,0-4.8-3.882H16.66a10.461,10.461,0,0,0-10.175,10.7v6.61a3.968,3.968,0,0,0-1.3,2.94,3.869,3.869,0,0,0,2.628,3.718A13.612,13.612,0,0,0,12.967,47.1v1.713a1.034,1.034,0,0,0-.358-.008,1.092,1.092,0,0,0-.755.5l-1.186,1.872L3.554,53.417A5.188,5.188,0,0,0,0,58.442V86.776a1.126,1.126,0,0,0,1.1,1.153,1.126,1.126,0,0,0,1.1-1.153V58.442a2.908,2.908,0,0,1,1.992-2.816l4.9-1.545a1.187,1.187,0,0,0,.239.672l4.4,5.789a2.341,2.341,0,0,0,1.866.949,2.313,2.313,0,0,0,1.438-.508l2.429-1.916v27.71a1.1,1.1,0,1,0,2.192,0V59.066l2.429,1.916a2.313,2.313,0,0,0,1.438.508,2.342,2.342,0,0,0,1.866-.949l4.4-5.789a1.186,1.186,0,0,0,.239-.672l4.9,1.545a2.908,2.908,0,0,1,1.992,2.816,1.1,1.1,0,1,0,2.192,0,5.187,5.187,0,0,0-3.563-5.024ZM9.974,36.3a1.126,1.126,0,0,0-1.1-1.153,1.54,1.54,0,0,1-1.5-1.576,1.573,1.573,0,0,1,.752-1.354c.024-.015.046-.032.069-.049a1.435,1.435,0,0,1,.676-.173H10.4a2.433,2.433,0,0,0,2.347-2.024l.8-4.194a.193.193,0,0,1,.086-.133.206.206,0,0,1,.177-.02,23.377,23.377,0,0,0,6.735.913,21.1,21.1,0,0,0,8.2-1.453,1.175,1.175,0,0,0,.589-1.508,1.078,1.078,0,0,0-1.434-.62,19.286,19.286,0,0,1-7.36,1.275,21.582,21.582,0,0,1-6.122-.821,2.316,2.316,0,0,0-1.927.262,2.513,2.513,0,0,0-1.1,1.653l-.8,4.194a.2.2,0,0,1-.2.17H8.878a1.9,1.9,0,0,0-.2.007v-5.68a8.207,8.207,0,0,1,7.983-8.4H27.037A2.821,2.821,0,0,1,29.783,18.1a1.154,1.154,0,0,0,.544.824,4.344,4.344,0,0,1,2.1,3.731V31.22a1.165,1.165,0,0,0,.545,1,1.573,1.573,0,0,1,.752,1.354,1.54,1.54,0,0,1-1.5,1.576,1.126,1.126,0,0,0-1.1,1.153A10.874,10.874,0,0,1,20.551,47.422,10.874,10.874,0,0,1,9.974,36.3Zm5.737,22.842a.193.193,0,0,1-.277-.037l-3.9-5.131L13,51.646l5.78,5.067Zm4.84-3.878L15.162,50.54V48.47a12.173,12.173,0,0,0,10.778,0v2.066ZM25.669,59.1a.193.193,0,0,1-.277.037l-3.074-2.425,5.78-5.067,1.473,2.324Z" transform="translate(0 -13.313)"/><path class="c" d="M44.592,47.933V76.921" transform="translate(-4.564 -2.305)"/><g transform="translate(17.109 54.66)"><path class="b" d="M107.647,368.313h-.013a1.1,1.1,0,1,0,.013,0Z" transform="translate(-106.544 -368.313)"/></g><g transform="translate(17.109 65.939)"><path class="b" d="M107.647,439.313h-.013a1.1,1.1,0,1,0,.013,0Z" transform="translate(-106.544 -439.313)"/></g><g transform="translate(17.109 60.751)"><path class="b" d="M107.647,403.813h-.013a1.105,1.105,0,1,0,.01,0Z" transform="translate(-106.544 -403.813)"/></g></g></svg>